<mxfile host="www.draw.io" modified="2020-01-15T13:53:54.275Z" agent="Mozilla/5.0 (Windows NT 10.0; Win64; x64) AppleWebKit/537.36 (KHTML, like Gecko) Chrome/79.0.3945.117 Safari/537.36" etag="D3iS5VoHv1jvPFIqbKAL" version="12.5.3" type="github">
  <diagram id="OS9wc6R2EMtAV5vi43Ng" name="Page-1">
    <mxGraphModel dx="1038" dy="622" grid="1" gridSize="10" guides="1" tooltips="1" connect="1" arrows="1" fold="1" page="1" pageScale="1" pageWidth="827" pageHeight="1169" math="0" shadow="0">
      <root>
        <mxCell id="0"/>
        <mxCell id="1" parent="0"/>
        <mxCell id="k0WZAithlWAE11F4-99s-4" style="edgeStyle=orthogonalEdgeStyle;rounded=0;orthogonalLoop=1;jettySize=auto;html=1;" edge="1" parent="1" source="k0WZAithlWAE11F4-99s-1" target="k0WZAithlWAE11F4-99s-3">
          <mxGeometry relative="1" as="geometry"/>
        </mxCell>
        <mxCell id="k0WZAithlWAE11F4-99s-6" style="edgeStyle=orthogonalEdgeStyle;rounded=0;orthogonalLoop=1;jettySize=auto;html=1;entryX=0.5;entryY=1;entryDx=0;entryDy=0;" edge="1" parent="1" source="k0WZAithlWAE11F4-99s-1" target="k0WZAithlWAE11F4-99s-2">
          <mxGeometry relative="1" as="geometry"/>
        </mxCell>
        <mxCell id="k0WZAithlWAE11F4-99s-1" value="45" style="ellipse;whiteSpace=wrap;html=1;" vertex="1" parent="1">
          <mxGeometry x="353" y="410" width="60" height="40" as="geometry"/>
        </mxCell>
        <mxCell id="k0WZAithlWAE11F4-99s-7" style="edgeStyle=orthogonalEdgeStyle;rounded=0;orthogonalLoop=1;jettySize=auto;html=1;" edge="1" parent="1" source="k0WZAithlWAE11F4-99s-2" target="k0WZAithlWAE11F4-99s-5">
          <mxGeometry relative="1" as="geometry"/>
        </mxCell>
        <mxCell id="k0WZAithlWAE11F4-99s-2" value="2" style="ellipse;whiteSpace=wrap;html=1;" vertex="1" parent="1">
          <mxGeometry x="293" y="300" width="60" height="40" as="geometry"/>
        </mxCell>
        <mxCell id="k0WZAithlWAE11F4-99s-8" style="edgeStyle=orthogonalEdgeStyle;rounded=0;orthogonalLoop=1;jettySize=auto;html=1;entryX=0.575;entryY=1;entryDx=0;entryDy=0;entryPerimeter=0;" edge="1" parent="1" source="k0WZAithlWAE11F4-99s-3" target="k0WZAithlWAE11F4-99s-5">
          <mxGeometry relative="1" as="geometry"/>
        </mxCell>
        <mxCell id="k0WZAithlWAE11F4-99s-3" value="2107" style="ellipse;whiteSpace=wrap;html=1;" vertex="1" parent="1">
          <mxGeometry x="413" y="300" width="60" height="40" as="geometry"/>
        </mxCell>
        <mxCell id="k0WZAithlWAE11F4-99s-5" value="1" style="ellipse;whiteSpace=wrap;html=1;" vertex="1" parent="1">
          <mxGeometry x="323" y="140" width="120" height="80" as="geometry"/>
        </mxCell>
      </root>
    </mxGraphModel>
  </diagram>
</mxfile>
